<svg width="24" height="16" viewBox="0 0 24 16" fill="none" xmlns="http://www.w3.org/2000/svg">
<path d="M1.89663 -0.00244141C0.855475 -0.00244141 0 0.850603 0 1.89176C0 2.93292 0.855475 3.78516 1.89663 3.78516C2.08658 3.78516 2.27037 3.75624 2.44372 3.70354L4.75248 11.6634C4.79707 11.8499 4.96396 11.9814 5.15573 11.981H18.6552C18.8429 11.981 19.0071 11.8546 19.0552 11.6731L21.5781 3.71C21.745 3.75856 21.9213 3.78517 22.1034 3.78517C23.1445 3.78517 24 2.93293 24 1.89177C24 0.850607 23.1445 -0.00243693 22.1034 -0.00243693C21.0622 -0.00243693 20.21 0.850607 20.21 1.89177C20.21 2.42708 20.4354 2.9122 20.7959 3.25747L16.6333 7.73439L12.802 3.61223C13.4535 3.31207 13.9092 2.65271 13.9092 1.89177C13.9092 0.850607 13.0569 -0.00243537 12.0158 -0.00243693C10.9746 -0.00243693 10.1216 0.850607 10.1216 1.89177C10.1216 2.65261 10.5771 3.31201 11.2287 3.61223L7.39742 7.73439L3.22031 3.24212C3.57137 2.8979 3.79003 2.4191 3.79003 1.89177C3.79003 0.850607 2.93778 -0.00243984 1.89663 -0.00244141ZM4.95128 12.8012C4.5618 12.8012 4.22855 13.0281 4.01953 13.3241C3.81051 13.62 3.69871 13.9948 3.69871 14.4021C3.69871 14.8094 3.8105 15.1874 4.01953 15.4833C4.22855 15.7793 4.5618 16.0021 4.95128 16.0021H19.077C19.4665 16.0021 19.7997 15.7793 20.0088 15.4833C20.2178 15.1874 20.3288 14.8094 20.3288 14.4021C20.3288 13.9948 20.2178 13.62 20.0088 13.3241C19.7997 13.0281 19.4665 12.8012 19.077 12.8012H4.95128Z" fill="white"/>
</svg>
